# AST/ASF file generated using VICON BodyLanguage
# -----------------------------------------------
:version 1.10
:name VICON
:units
  mass 1.0
  length 0.45
  angle deg
:documentation
   .ast/.asf automatically generated from VICON data using
   VICON BodyBuilder and BodyLanguage model FoxedUp or BRILLIANT.MOD
:root
   order TX TY TZ RX RY RZ
   axis XYZ
   position 0 0 0  
   orientation 0 0 0 
:bonedata
  begin
     id 1 
     name lhipjoint
     direction 0.710087 -0.641647 0.289942 
     length 2.79038 
     axis 0 0 0  XYZ
  end
  begin
     id 2 
     name lfemur
     direction 0.34202 -0.939693 0  
     length 7.2706  
     axis 0 0 20  XYZ
    dof rx ry rz
    limits (-160.0 20.0)
           (-70.0 70.0)
           (-60.0 70.0)
  end
  begin
     id 3 
     name ltibia
     direction 0.34202 -0.939693 0   
     length 7.86328   
     axis 0 0 20   XYZ
    dof rx
    limits (-10.0 170.0)
  end
  begin
     id 4 
     name lfoot
     direction 0.0541246 -0.148706 0.987399   
     length 2.37542   
     axis -90 7.62852e-016 20   XYZ
    dof rx rz
    limits (-45.0 90.0)
           (-70.0 20.0)
  end
  begin
     id 5 
     name ltoes
     direction 1.53554e-011 -4.21866e-011 1   
     length 1.19593   
     axis -90 7.62852e-016 20   XYZ
    dof rx
    limits (-90.0 20.0)
  end
  begin
     id 6 
     name rhipjoint
     direction -0.675762 -0.671724 0.303533   
     length 2.66544  
     axis 0 0 0  XYZ 
  end
  begin
     id 7 
     name rfemur
     direction -0.34202 -0.939693 0   
     length 8.11844   
     axis 0 0 -20   XYZ
    dof rx ry rz
    limits (-160.0 20.0)
           (-70.0 70.0)
           (-70.0 60.0)
  end
  begin
     id 8 
     name rtibia
     direction -0.34202 -0.939693 0   
     length 7.97082   
     axis 0 0 -20   XYZ
    dof rx
    limits (-10.0 170.0)
 end
 begin
     id 9 
     name rfoot
     direction -0.0726228 -0.199474 0.977208   
     length 2.19677  
     axis -90 -7.62852e-016 -20   XYZ
    dof rx rz
    limits (-45.0 90.0)
           (-20.0 70.0)
  end
  begin
     id 10 
     name rtoes
     direction -1.53508e-011 -4.21913e-011 1   
     length 1.10438   
     axis -90 -7.62852e-016 -20   XYZ
    dof rx
    limits (-90.0 20.0)
  end
  begin
     id 11 
     name lowerback
     direction -0.00404436 0.999673 -0.0252643   
     length 2.03972   
     axis 0 0 0   XYZ
    dof rx ry rz
    limits (-20.0 45.0)
           (-30.0 30.0)
           (-30.0 30.0)
  end
  begin
     id 12 
     name upperback
     direction 0.00744643 0.999969 0.00242763   
     length 2.04273   
     axis 0 0 0   XYZ
    dof rx ry rz
    limits (-20.0 45.0)
           (-30.0 30.0)
           (-30.0 30.0)
  end
  begin
     id 13 
     name thorax
     direction 0.00846113 0.999862 0.0143204   
     length 2.03752   
     axis 0 0 0   XYZ
    dof rx ry rz
    limits (-20.0 45.0)
           (-30.0 30.0)
           (-30.0 30.0)
  end
  begin
     id 14 
     name lowerneck
     direction 0.0328213 0.990857 0.130862   
     length 1.37497   
     axis 0 0 0   XYZ
    dof rx ry rz
    limits (-20.0 45.0)
           (-30.0 30.0)
           (-30.0 30.0)
  end
  begin
     id 15 
     name upperneck
     direction -0.0302832 0.999496 0.00956452   
     length 1.35926   
     axis 0 0 0   XYZ
    dof rx ry rz
    limits (-20.0 45.0)
           (-30.0 30.0)
           (-30.0 30.0)
  end
  begin
     id 16
     name head
     direction -0.0130455 0.999856 -0.0108809  
     length 1.44454  
     axis 0 0 0   XYZ
    dof rx ry rz
    limits (-20.0 45.0)
           (-30.0 30.0)
           (-30.0 30.0)
  end
  begin
     id 17 
     name lclavicle
     direction 0.952957 0.278766 0.119006  
     length 3.10112  
     axis 0 0 0   XYZ
    dof ry rz
    limits (-20.0 10.0)
           (0.0 20.0)
  end
  begin
     id 18 
     name lhumerus
     direction 1 -4.48972e-011 -1.63238e-028   
     length 5.82845   
     axis -180 -30 -90   XYZ
    dof rx ry rz
    limits (-60.0 90.0)
           (-90.0 90.0)
           (-90.0 90.0)
  end
  begin
     id 19
     name lradius
     direction 1 -4.48959e-011 1.45401e-026   
     length 3.49691   
     axis -180 -30 -90   XYZ
    dof rx
    limits (-10.0 170.0)
  end
  begin
     id 20
     name lwrist
     direction 1 -4.48945e-011 2.98015e-026   
     length 1.74845   
     axis -1.7599e-014 90 90   XYZ
    dof ry
    limits (-180.0 0.0)
 end
  begin
     id 21 
     name lhand
     direction 1 -4.4902e-011 5.9603e-026   
     length 0.674998   
     axis -3.80318e-014 90 90   XYZ
    dof rx rz
    limits (-90.0 90.0)
           (-45.0 45.0)
  end
  begin
     id 22 
     name lfingers
     direction 1 -4.48979e-011 1.19206e-025   
     length 0.544201   
     axis -7.60636e-014 90 90   XYZ
    dof rx
    limits (0.0 90.0)
  end
  begin
     id 23
     name lthumb
     direction 0.707107 -6.34941e-011 0.707107   
     length 0.781367   
     axis -90 45 2.85299e-015   XYZ
    dof rx rz
    limits (-45.0 45.0)
           (-45.0 45.0)
  end
  begin
     id 24 
     name rclavicle
     direction -0.967632 0.241887 0.0719654   
     length 3.53012  
     axis 0 0 0   XYZ 
    dof ry rz
    limits (-10.0 20.0)
           (-20.0 0.0)
  end
  begin
     id 25 
     name rhumerus
     direction -1 -4.4897e-011 6.87619e-028  
     length 5.45859   
     axis -180 30 90   XYZ
    dof rx ry rz
    limits (-90.0 60.0)
           (-90.0 90.0)
           (-90.0 90.0)
  end
  begin
     id 26 
     name rradius
     direction -1 -4.48967e-011 1.68055e-026   
     length 3.58491   
     axis -180 30 90   XYZ
    dof rx
    limits (-10.0 170.0)
  end
  begin
     id 27 
     name rwrist
     direction -1 -4.48976e-011 2.98015e-026   
     length 1.79245   
     axis -1.7599e-014 -90 -90   XYZ
    dof ry
    limits (-180.0 0.0)
  end
  begin
     id 28
     name rhand
     direction -1 -4.48996e-011 5.9603e-026   
     length 0.683735   
     axis -3.80318e-014 -90 -90   XYZ
    dof rx rz
    limits (-90.0 90.0)
           (-45.0 45.0)
  end
  begin
     id 29
     name rfingers
     direction -1 -4.48924e-011 1.19206e-025   
     length 0.551245   
     axis -7.60636e-014 -90 -90   XYZ
    dof rx
    limits (0.0 90.0)
  end
  begin
     id 30
     name rthumb
     direction -0.707107 -6.3492e-011 0.707107   
     length 0.791481   
     axis -90 -45 -2.85299e-015   XYZ
    dof rx rz
    limits (-45.0 45.0)
           (-45.0 45.0)
  end
:hierarchy
  begin
    root lhipjoint rhipjoint lowerback
    lhipjoint lfemur
    lfemur ltibia
    ltibia lfoot
    lfoot ltoes
    rhipjoint rfemur
    rfemur rtibia
    rtibia rfoot
    rfoot rtoes
    lowerback upperback
    upperback thorax
    thorax lowerneck lclavicle rclavicle
    lowerneck upperneck
    upperneck head
    lclavicle lhumerus
    lhumerus lradius
    lradius lwrist
    lwrist lhand lthumb
    lhand lfingers
    rclavicle rhumerus
    rhumerus rradius
    rradius rwrist
    rwrist rhand rthumb
    rhand rfingers
  end

#!OML:ASF F:\VICON\USERDATA\INSTALL\rory3\rory3.ASF
:FULLY-SPECIFIED
:DEGREES
1860
root 0.309 18.1526 -31.5487 -170.26 -176.593 178.558
lowerback -4.36716 2.04017 -3.18398
upperback -3.00559 2.82725 0.528805
thorax -0.826367 1.46944 2.42217
lowerneck -10.309 3.59425 2.28037
upperneck 6.70716 4.78518 -3.18349
head 4.22666 2.2662 -1.14879
rclavicle 5.73991e-015 3.37934e-015
rhumerus -43.3678 -32.4236 -48.4192
rradius 12.5243
rwrist 33.1051
rhand -13.9823 404.993
rfingers 7.12502
rthumb 12.1461 -344.634
lclavicle 5.73991e-015 3.37934e-015
lhumerus -36.4987 -8.52185 82.2614
lradius 34.5386
lwrist 30.8036
lhand -25.604 426.922
lfingers 7.12502
lthumb -179.072 443.1
rfemur -21.315 12.2364 17.7568
rtibia 40.493
rfoot -36.944 -6.96708
rtoes 14.9303
lfemur -14.3612 -6.78147 -19.4633
ltibia 22.972
lfoot -14.446 15.8118
ltoes -6.70165
1861
root 0.326187 18.1539 -31.5557 -170.464 -177.137 178.361
lowerback -4.36766 1.91338 -2.86275
upperback -2.91123 2.64884 0.649078
thorax -0.707324 1.37338 2.36323
lowerneck -10.4097 3.63031 2.0885
upperneck 6.57805 4.83546 -2.97019
head 4.18751 2.29613 -1.03738
rclavicle -2.57147e-014 1.17283e-014
rhumerus -44.9219 -32.2991 -46.4369
rradius 12.6031
rwrist 32.0448
rhand -13.1357 403.255
rfingers 7.12502
rthumb 12.9624 -346.322
lclavicle -2.57147e-014 1.17283e-014
lhumerus -36.5968 -7.98978 81.5601
lradius 34.3894
lwrist 30.5801
lhand -25.4285 427.227
lfingers 7.12502
lthumb -178.902 442.796
rfemur -20.9593 12.1192 18.0409
rtibia 40.4234
rfoot -37.2568 -6.91774
rtoes 15.6426
lfemur -14.3171 -6.52775 -19.2742
ltibia 23.0584
lfoot -14.2086 15.0823
ltoes -6.85461
1862
root 0.347498 18.1518 -31.561 -170.642 -177.468 178.422
lowerback -4.46293 1.82973 -2.85978
upperback -2.79244 2.54114 0.712898
thorax -0.528048 1.31565 2.4302
lowerneck -10.4958 3.63516 1.96273
upperneck 6.34882 4.83597 -2.79247
head 4.11168 2.30241 -0.954473
rclavicle 9.78393e-016 -1.09332e-015
rhumerus -45.056 -29.4491 -47.3058
rradius 13.1441
rwrist 28.3914
rhand -11.5995 402.266
rfingers 7.12502
rthumb 14.4429 -347.211
lclavicle 9.78393e-016 -1.09332e-015
lhumerus -36.6507 -7.64356 80.9614
lradius 34.2219
lwrist 30.7153
lhand -25.297 426.771
lfingers 7.12502
lthumb -178.775 443.253
rfemur -20.686 12.1126 17.9739
rtibia 40.3455
rfoot -37.4509 -6.93542
rtoes 15.9466
lfemur -14.2603 -6.63526 -19.3978
ltibia 23.1778
lfoot -14.2619 14.7656
ltoes -5.9129
1863
root 0.367983 18.1499 -31.5635 -170.782 -177.725 178.538
lowerback -4.39701 1.76918 -2.94271
upperback -2.95062 2.46001 0.731105
thorax -0.727122 1.28167 2.48667
lowerneck -9.73286 3.54435 1.93554
upperneck 5.79892 4.70549 -2.67389
head 3.75544 2.25294 -0.933274
rclavicle -2.34504e-015 6.06293e-015
rhumerus -45.0733 -24.6989 -49.7096
rradius 14.0798
rwrist 23.4505
rhand -9.95966 401.941
rfingers 7.12502
rthumb 16.0225 -347.416
lclavicle -2.34504e-015 6.06293e-015
lhumerus -37.1365 -7.33186 80.3261
lradius 34.0825
lwrist 30.8218
lhand -25.3582 426.132
lfingers 7.12502
lthumb -178.834 443.891
rfemur -20.4611 12.0656 17.8278
rtibia 40.2627
rfoot -37.5861 -6.80161
rtoes 16.5593
lfemur -14.23 -6.86976 -19.5772
ltibia 23.315
lfoot -14.3588 14.6291
ltoes -4.53927
1864
root 0.392494 18.151 -31.5638 -170.896 -178.116 178.498
lowerback -4.36381 1.65852 -2.77715
upperback -2.9789 2.30576 0.738646
thorax -0.757906 1.20292 2.39514
lowerneck -9.58705 3.53528 2.11315
upperneck 5.4033 4.66118 -2.65027
head 3.59116 2.23946 -0.963861
rclavicle -1.68035e-015 5.66536e-015
rhumerus -44.9837 -20.3599 -52.3343
rradius 14.9577
rwrist 19.0726
rhand -8.78881 402.194
rfingers 7.12502
rthumb 17.1497 -347.07
lclavicle -1.68035e-015 5.66536e-015
lhumerus -37.4185 -7.26248 79.7163
lradius 34.0529
lwrist 31.1674
lhand -25.5692 425.499
lfingers 7.12502
lthumb -179.038 444.523
rfemur -20.2263 11.879 17.8599
rtibia 40.1965
rfoot -37.7658 -6.94366
rtoes 16.3524
lfemur -14.2084 -7.08858 -19.5669
ltibia 23.415
lfoot -14.666 14.2513
ltoes -2.3274
1865
root 0.413627 18.1497 -31.5697 -170.998 -178.543 178.546
lowerback -4.47824 1.5003 -2.69162
upperback -2.8766 2.09575 0.680313
thorax -0.570033 1.09184 2.28624
lowerneck -9.61874 3.55652 2.24457
upperneck 5.09641 4.65429 -2.51171
head 3.48908 2.24594 -0.942622
rclavicle 4.59814e-014 1.2921e-015
rhumerus -44.7813 -16.3637 -55.135
rradius 15.781
rwrist 15.164
rhand -8.33859 403.278
rfingers 7.12502
rthumb 17.583 -345.947
lclavicle 4.59814e-014 1.2921e-015
lhumerus -37.3911 -7.03401 78.9828
lradius 33.8454
lwrist 31.0044
lhand -25.7524 426.187
lfingers 7.12502
lthumb -179.215 443.834
rfemur -20.0387 11.7457 17.8257
rtibia 40.1703
rfoot -38.096 -6.9307
rtoes 16.879
lfemur -14.2075 -6.947 -19.6309
ltibia 23.4595
lfoot -14.7444 13.4556
ltoes -0.715797
